<svg xmlns="http://www.w3.org/2000/svg" xmlns:xlink="http://www.w3.org/1999/xlink" width="500" zoomAndPan="magnify" viewBox="0 0 375 187.499995" height="250" preserveAspectRatio="xMidYMid meet" version="1.0"><defs><g/><clipPath id="460adaa874"><path d="M 0.5 0 L 374.5 0 L 374.5 187 L 0.5 187 Z M 0.5 0 " clip-rule="nonzero"/></clipPath><clipPath id="5d7a5adb47"><path d="M 117.660156 13.015625 L 364.503906 13.015625 L 364.503906 173.835938 L 117.660156 173.835938 Z M 117.660156 13.015625 " clip-rule="nonzero"/></clipPath><clipPath id="400bd8239e"><path d="M 0.660156 0.015625 L 247.328125 0.015625 L 247.328125 160.835938 L 0.660156 160.835938 Z M 0.660156 0.015625 " clip-rule="nonzero"/></clipPath><clipPath id="94c93cc67f"><rect x="0" width="248" y="0" height="161"/></clipPath></defs><g clip-path="url(#460adaa874)"><path fill="#ffffff" d="M 0.5 0 L 374.5 0 L 374.5 187 L 0.5 187 Z M 0.5 0 " fill-opacity="1" fill-rule="nonzero"/><path fill="#ffffff" d="M 0.5 0 L 374.5 0 L 374.5 187 L 0.5 187 Z M 0.5 0 " fill-opacity="1" fill-rule="nonzero"/></g><g clip-path="url(#5d7a5adb47)"><g transform="matrix(1, 0, 0, 1, 117, 13)"><g clip-path="url(#94c93cc67f)"><g clip-path="url(#400bd8239e)"><path fill="#007a3f" d="M 162.574219 122.96875 L 162.574219 109.183594 L 193.65625 131.765625 L 181.785156 95.226562 L 212.867188 72.640625 L 174.445312 72.640625 L 162.574219 36.101562 L 150.699219 72.640625 L 16.148438 72.640625 L 0.800781 61.488281 L 142.597656 61.488281 L 162.574219 0.0117188 L 182.550781 61.488281 L 247.191406 61.488281 L 194.894531 99.484375 L 214.871094 160.960938 L 162.574219 122.96875 " fill-opacity="1" fill-rule="nonzero"/></g></g></g></g><g fill="#ffffff" fill-opacity="1"><g transform="translate(84.058423, 66.611025)"><g><path d="M 20.796875 -23.921875 C 18.710938 -23.921875 16.921875 -23.148438 15.421875 -21.609375 C 13.921875 -20.066406 13.171875 -18.210938 13.171875 -16.046875 C 13.171875 -13.835938 13.921875 -11.960938 15.421875 -10.421875 C 16.921875 -8.890625 18.710938 -8.125 20.796875 -8.125 C 21.796875 -8.125 22.742188 -8.25 23.640625 -8.5 C 24.535156 -8.75 25.191406 -9 25.609375 -9.25 L 26.171875 -9.625 L 29.921875 -1.9375 C 29.628906 -1.726562 29.222656 -1.46875 28.703125 -1.15625 C 28.179688 -0.84375 26.992188 -0.414062 25.140625 0.125 C 23.285156 0.664062 21.296875 0.9375 19.171875 0.9375 C 14.460938 0.9375 10.328125 -0.71875 6.765625 -4.03125 C 3.210938 -7.34375 1.4375 -11.304688 1.4375 -15.921875 C 1.4375 -20.585938 3.210938 -24.59375 6.765625 -27.9375 C 10.328125 -31.289062 14.460938 -32.96875 19.171875 -32.96875 C 21.296875 -32.96875 23.253906 -32.71875 25.046875 -32.21875 C 26.835938 -31.71875 28.109375 -31.222656 28.859375 -30.734375 L 29.921875 -29.984375 L 26.171875 -22.421875 C 24.796875 -23.421875 23.003906 -23.921875 20.796875 -23.921875 Z M 20.796875 -23.921875 "/></g></g></g><g fill="#ffffff" fill-opacity="1"><g transform="translate(109.411072, 66.611025)"><g><path d="M 5.921875 -3.96875 C 2.929688 -7.238281 1.4375 -11.242188 1.4375 -15.984375 C 1.4375 -20.734375 2.929688 -24.75 5.921875 -28.03125 C 8.921875 -31.320312 12.734375 -32.96875 17.359375 -32.96875 C 21.609375 -32.96875 25.109375 -31.640625 27.859375 -28.984375 L 27.859375 -32.03125 L 38.90625 -32.03125 L 38.90625 0 L 27.984375 0 L 27.984375 -3.625 L 27.859375 -3.625 C 25.109375 -0.582031 21.609375 0.9375 17.359375 0.9375 C 12.734375 0.9375 8.921875 -0.695312 5.921875 -3.96875 Z M 15.328125 -21.421875 C 13.890625 -20.003906 13.171875 -18.191406 13.171875 -15.984375 C 13.171875 -13.773438 13.859375 -11.972656 15.234375 -10.578125 C 16.609375 -9.191406 18.421875 -8.5 20.671875 -8.5 C 22.835938 -8.5 24.617188 -9.203125 26.015625 -10.609375 C 27.410156 -12.023438 28.109375 -13.816406 28.109375 -15.984375 C 28.109375 -18.191406 27.390625 -20.003906 25.953125 -21.421875 C 24.515625 -22.835938 22.753906 -23.546875 20.671875 -23.546875 C 18.546875 -23.546875 16.765625 -22.835938 15.328125 -21.421875 Z M 15.328125 -21.421875 "/></g></g></g><g fill="#ffffff" fill-opacity="1"><g transform="translate(146.753503, 66.611025)"><g><path d="M 3.75 0 L 3.75 -32.03125 L 14.796875 -32.03125 L 14.796875 -28.671875 L 14.921875 -28.671875 C 17.796875 -31.535156 20.859375 -32.96875 24.109375 -32.96875 C 25.691406 -32.96875 27.265625 -32.757812 28.828125 -32.34375 C 30.390625 -31.925781 31.882812 -31.28125 33.3125 -30.40625 C 34.75 -29.539062 35.914062 -28.304688 36.8125 -26.703125 C 37.707031 -25.097656 38.15625 -23.234375 38.15625 -21.109375 L 38.15625 0 L 27.109375 0 L 27.109375 -18.109375 C 27.109375 -19.773438 26.578125 -21.234375 25.515625 -22.484375 C 24.453125 -23.734375 23.066406 -24.359375 21.359375 -24.359375 C 19.691406 -24.359375 18.179688 -23.710938 16.828125 -22.421875 C 15.472656 -21.128906 14.796875 -19.691406 14.796875 -18.109375 L 14.796875 0 Z M 3.75 0 "/></g></g></g><g fill="#ffffff" fill-opacity="1"><g transform="translate(182.722106, 66.611025)"><g><path d="M 3.75 0 L 3.75 -32.03125 L 14.796875 -32.03125 L 14.796875 -28.671875 L 14.921875 -28.671875 C 17.796875 -31.535156 20.859375 -32.96875 24.109375 -32.96875 C 25.691406 -32.96875 27.265625 -32.757812 28.828125 -32.34375 C 30.390625 -31.925781 31.882812 -31.28125 33.3125 -30.40625 C 34.75 -29.539062 35.914062 -28.304688 36.8125 -26.703125 C 37.707031 -25.097656 38.15625 -23.234375 38.15625 -21.109375 L 38.15625 0 L 27.109375 0 L 27.109375 -18.109375 C 27.109375 -19.773438 26.578125 -21.234375 25.515625 -22.484375 C 24.453125 -23.734375 23.066406 -24.359375 21.359375 -24.359375 C 19.691406 -24.359375 18.179688 -23.710938 16.828125 -22.421875 C 15.472656 -21.128906 14.796875 -19.691406 14.796875 -18.109375 L 14.796875 0 Z M 3.75 0 "/></g></g></g><g fill="#ffffff" fill-opacity="1"><g transform="translate(218.690709, 66.611025)"><g><path d="M 5.921875 -3.96875 C 2.929688 -7.238281 1.4375 -11.242188 1.4375 -15.984375 C 1.4375 -20.734375 2.929688 -24.75 5.921875 -28.03125 C 8.921875 -31.320312 12.734375 -32.96875 17.359375 -32.96875 C 21.609375 -32.96875 25.109375 -31.640625 27.859375 -28.984375 L 27.859375 -32.03125 L 38.90625 -32.03125 L 38.90625 0 L 27.984375 0 L 27.984375 -3.625 L 27.859375 -3.625 C 25.109375 -0.582031 21.609375 0.9375 17.359375 0.9375 C 12.734375 0.9375 8.921875 -0.695312 5.921875 -3.96875 Z M 15.328125 -21.421875 C 13.890625 -20.003906 13.171875 -18.191406 13.171875 -15.984375 C 13.171875 -13.773438 13.859375 -11.972656 15.234375 -10.578125 C 16.609375 -9.191406 18.421875 -8.5 20.671875 -8.5 C 22.835938 -8.5 24.617188 -9.203125 26.015625 -10.609375 C 27.410156 -12.023438 28.109375 -13.816406 28.109375 -15.984375 C 28.109375 -18.191406 27.390625 -20.003906 25.953125 -21.421875 C 24.515625 -22.835938 22.753906 -23.546875 20.671875 -23.546875 C 18.546875 -23.546875 16.765625 -22.835938 15.328125 -21.421875 Z M 15.328125 -21.421875 "/></g></g></g><g fill="#ffffff" fill-opacity="1"><g transform="translate(36.198298, 142.345972)"><g><path d="M 5.625 -32.03125 L 5.625 -38.84375 C 5.664062 -43.632812 6.785156 -47.460938 8.984375 -50.328125 C 11.191406 -53.203125 14.253906 -54.640625 18.171875 -54.640625 C 19.835938 -54.640625 21.429688 -54.398438 22.953125 -53.921875 C 24.472656 -53.441406 25.566406 -52.953125 26.234375 -52.453125 L 27.296875 -51.78125 L 23.421875 -43.96875 C 22.421875 -44.550781 21.316406 -44.84375 20.109375 -44.84375 C 18.734375 -44.84375 17.816406 -44.375 17.359375 -43.4375 C 16.898438 -42.5 16.671875 -40.863281 16.671875 -38.53125 L 16.671875 -32.03125 L 24.046875 -32.03125 L 24.046875 -23.609375 L 16.671875 -23.609375 L 16.671875 0 L 5.625 0 L 5.625 -23.609375 L 1 -23.609375 L 1 -32.03125 Z M 5.625 -32.03125 "/></g></g></g><g fill="#ffffff" fill-opacity="1"><g transform="translate(54.307123, 142.345972)"><g><path d="M 36.15625 -14.484375 L 12.921875 -14.484375 C 12.921875 -12.234375 13.648438 -10.566406 15.109375 -9.484375 C 16.566406 -8.410156 18.148438 -7.875 19.859375 -7.875 C 21.648438 -7.875 23.066406 -8.113281 24.109375 -8.59375 C 25.148438 -9.070312 26.335938 -10.015625 27.671875 -11.421875 L 35.65625 -7.4375 C 32.332031 -1.851562 26.796875 0.9375 19.046875 0.9375 C 14.210938 0.9375 10.066406 -0.71875 6.609375 -4.03125 C 3.160156 -7.34375 1.4375 -11.328125 1.4375 -15.984375 C 1.4375 -20.648438 3.160156 -24.644531 6.609375 -27.96875 C 10.066406 -31.300781 14.210938 -32.96875 19.046875 -32.96875 C 24.128906 -32.96875 28.257812 -31.5 31.4375 -28.5625 C 34.625 -25.632812 36.21875 -21.441406 36.21875 -15.984375 C 36.21875 -15.234375 36.195312 -14.734375 36.15625 -14.484375 Z M 13.234375 -20.609375 L 25.421875 -20.609375 C 25.171875 -22.273438 24.515625 -23.554688 23.453125 -24.453125 C 22.390625 -25.347656 21.023438 -25.796875 19.359375 -25.796875 C 17.523438 -25.796875 16.066406 -25.316406 14.984375 -24.359375 C 13.898438 -23.398438 13.316406 -22.148438 13.234375 -20.609375 Z M 13.234375 -20.609375 "/></g></g></g><g fill="#ffffff" fill-opacity="1"><g transform="translate(86.653808, 142.345972)"><g><path d="M 5.921875 -3.96875 C 2.929688 -7.238281 1.4375 -11.242188 1.4375 -15.984375 C 1.4375 -20.734375 2.929688 -24.75 5.921875 -28.03125 C 8.921875 -31.320312 12.734375 -32.96875 17.359375 -32.96875 C 21.609375 -32.96875 25.109375 -31.640625 27.859375 -28.984375 L 27.859375 -32.03125 L 38.90625 -32.03125 L 38.90625 0 L 27.984375 0 L 27.984375 -3.625 L 27.859375 -3.625 C 25.109375 -0.582031 21.609375 0.9375 17.359375 0.9375 C 12.734375 0.9375 8.921875 -0.695312 5.921875 -3.96875 Z M 15.328125 -21.421875 C 13.890625 -20.003906 13.171875 -18.191406 13.171875 -15.984375 C 13.171875 -13.773438 13.859375 -11.972656 15.234375 -10.578125 C 16.609375 -9.191406 18.421875 -8.5 20.671875 -8.5 C 22.835938 -8.5 24.617188 -9.203125 26.015625 -10.609375 C 27.410156 -12.023438 28.109375 -13.816406 28.109375 -15.984375 C 28.109375 -18.191406 27.390625 -20.003906 25.953125 -21.421875 C 24.515625 -22.835938 22.753906 -23.546875 20.671875 -23.546875 C 18.546875 -23.546875 16.765625 -22.835938 15.328125 -21.421875 Z M 15.328125 -21.421875 "/></g></g></g><g fill="#ffffff" fill-opacity="1"><g transform="translate(123.996238, 142.345972)"><g><path d="M 5.625 -32.03125 L 5.625 -43.96875 L 16.671875 -43.96875 L 16.671875 -32.03125 L 23.421875 -32.03125 L 23.421875 -23.609375 L 16.671875 -23.609375 L 16.671875 -13.421875 C 16.671875 -10.472656 17.503906 -9 19.171875 -9 C 19.585938 -9 20.023438 -9.082031 20.484375 -9.25 C 20.941406 -9.414062 21.296875 -9.582031 21.546875 -9.75 L 21.921875 -10 L 24.671875 -1.0625 C 22.296875 0.269531 19.585938 0.9375 16.546875 0.9375 C 14.460938 0.9375 12.671875 0.570312 11.171875 -0.15625 C 9.679688 -0.882812 8.550781 -1.863281 7.78125 -3.09375 C 7.007812 -4.320312 6.457031 -5.613281 6.125 -6.96875 C 5.789062 -8.320312 5.625 -9.765625 5.625 -11.296875 L 5.625 -23.609375 L 1 -23.609375 L 1 -32.03125 Z M 5.625 -32.03125 "/></g></g></g><g fill="#ffffff" fill-opacity="1"><g transform="translate(143.354002, 142.345972)"><g><path d="M 14.171875 -32.03125 L 14.171875 -16.796875 C 14.171875 -13.628906 14.648438 -11.378906 15.609375 -10.046875 C 16.566406 -8.722656 18.191406 -8.0625 20.484375 -8.0625 C 22.773438 -8.0625 24.398438 -8.722656 25.359375 -10.046875 C 26.316406 -11.378906 26.796875 -13.628906 26.796875 -16.796875 L 26.796875 -32.03125 L 37.84375 -32.03125 L 37.84375 -14.109375 C 37.84375 -8.785156 36.457031 -4.945312 33.6875 -2.59375 C 30.925781 -0.238281 26.523438 0.9375 20.484375 0.9375 C 14.441406 0.9375 10.035156 -0.238281 7.265625 -2.59375 C 4.503906 -4.945312 3.125 -8.785156 3.125 -14.109375 L 3.125 -32.03125 Z M 14.171875 -32.03125 "/></g></g></g><g fill="#ffffff" fill-opacity="1"><g transform="translate(179.010373, 142.345972)"><g><path d="M 3.75 0 L 3.75 -32.03125 L 14.796875 -32.03125 L 14.796875 -27.421875 L 14.921875 -27.421875 C 15.003906 -27.585938 15.140625 -27.796875 15.328125 -28.046875 C 15.515625 -28.296875 15.921875 -28.734375 16.546875 -29.359375 C 17.171875 -29.984375 17.835938 -30.539062 18.546875 -31.03125 C 19.253906 -31.53125 20.171875 -31.976562 21.296875 -32.375 C 22.421875 -32.769531 23.566406 -32.96875 24.734375 -32.96875 C 25.941406 -32.96875 27.128906 -32.800781 28.296875 -32.46875 C 29.460938 -32.132812 30.316406 -31.800781 30.859375 -31.46875 L 31.71875 -30.984375 L 27.109375 -21.609375 C 25.734375 -22.773438 23.816406 -23.359375 21.359375 -23.359375 C 20.023438 -23.359375 18.878906 -23.066406 17.921875 -22.484375 C 16.960938 -21.898438 16.285156 -21.191406 15.890625 -20.359375 C 15.492188 -19.523438 15.210938 -18.816406 15.046875 -18.234375 C 14.878906 -17.648438 14.796875 -17.191406 14.796875 -16.859375 L 14.796875 0 Z M 3.75 0 "/></g></g></g><g fill="#ffffff" fill-opacity="1"><g transform="translate(204.800154, 142.345972)"><g><path d="M 36.15625 -14.484375 L 12.921875 -14.484375 C 12.921875 -12.234375 13.648438 -10.566406 15.109375 -9.484375 C 16.566406 -8.410156 18.148438 -7.875 19.859375 -7.875 C 21.648438 -7.875 23.066406 -8.113281 24.109375 -8.59375 C 25.148438 -9.070312 26.335938 -10.015625 27.671875 -11.421875 L 35.65625 -7.4375 C 32.332031 -1.851562 26.796875 0.9375 19.046875 0.9375 C 14.210938 0.9375 10.066406 -0.71875 6.609375 -4.03125 C 3.160156 -7.34375 1.4375 -11.328125 1.4375 -15.984375 C 1.4375 -20.648438 3.160156 -24.644531 6.609375 -27.96875 C 10.066406 -31.300781 14.210938 -32.96875 19.046875 -32.96875 C 24.128906 -32.96875 28.257812 -31.5 31.4375 -28.5625 C 34.625 -25.632812 36.21875 -21.441406 36.21875 -15.984375 C 36.21875 -15.234375 36.195312 -14.734375 36.15625 -14.484375 Z M 13.234375 -20.609375 L 25.421875 -20.609375 C 25.171875 -22.273438 24.515625 -23.554688 23.453125 -24.453125 C 22.390625 -25.347656 21.023438 -25.796875 19.359375 -25.796875 C 17.523438 -25.796875 16.066406 -25.316406 14.984375 -24.359375 C 13.898438 -23.398438 13.316406 -22.148438 13.234375 -20.609375 Z M 13.234375 -20.609375 "/></g></g></g><g fill="#ffffff" fill-opacity="1"><g transform="translate(237.146828, 142.345972)"><g><path d="M 5.921875 -3.96875 C 2.929688 -7.238281 1.4375 -11.242188 1.4375 -15.984375 C 1.4375 -20.734375 2.929688 -24.75 5.921875 -28.03125 C 8.921875 -31.320312 12.734375 -32.96875 17.359375 -32.96875 C 21.609375 -32.96875 25.109375 -31.640625 27.859375 -28.984375 L 27.859375 -53.703125 L 38.90625 -53.703125 L 38.90625 0 L 27.984375 0 L 27.984375 -3.625 L 27.859375 -3.625 C 25.109375 -0.582031 21.609375 0.9375 17.359375 0.9375 C 12.734375 0.9375 8.921875 -0.695312 5.921875 -3.96875 Z M 15.328125 -21.421875 C 13.890625 -20.003906 13.171875 -18.191406 13.171875 -15.984375 C 13.171875 -13.773438 13.859375 -11.972656 15.234375 -10.578125 C 16.609375 -9.191406 18.421875 -8.5 20.671875 -8.5 C 22.835938 -8.5 24.617188 -9.203125 26.015625 -10.609375 C 27.410156 -12.023438 28.109375 -13.816406 28.109375 -15.984375 C 28.109375 -18.191406 27.390625 -20.003906 25.953125 -21.421875 C 24.515625 -22.835938 22.753906 -23.546875 20.671875 -23.546875 C 18.546875 -23.546875 16.765625 -22.835938 15.328125 -21.421875 Z M 15.328125 -21.421875 "/></g></g></g></svg>