<svg xmlns="http://www.w3.org/2000/svg" xmlns:xlink="http://www.w3.org/1999/xlink" width="250" zoomAndPan="magnify" viewBox="0 0 187.5 112.499997" height="150" preserveAspectRatio="xMidYMid meet" version="1.0"><defs><g/><clipPath id="1a97ebbcf5"><path d="M 0.164062 0 L 186.835938 0 L 186.835938 112.003906 L 0.164062 112.003906 Z M 0.164062 0 " clip-rule="nonzero"/></clipPath><clipPath id="bcff8c16bc"><path d="M 59.914062 20.871094 L 167.433594 20.871094 L 167.433594 91.058594 L 59.914062 91.058594 Z M 59.914062 20.871094 " clip-rule="nonzero"/></clipPath><clipPath id="fa18983ce5"><path d="M 1.0625 0.871094 L 108.433594 0.871094 L 108.433594 71.058594 L 1.0625 71.058594 Z M 1.0625 0.871094 " clip-rule="nonzero"/></clipPath><clipPath id="d1712be8fb"><rect x="0" width="109" y="0" height="72"/></clipPath></defs><g clip-path="url(#1a97ebbcf5)"><path fill="#ffffff" d="M 0.164062 0 L 186.835938 0 L 186.835938 112.003906 L 0.164062 112.003906 Z M 0.164062 0 " fill-opacity="1" fill-rule="nonzero"/><path fill="#ffffff" d="M 0.164062 0 L 186.835938 0 L 186.835938 112.003906 L 0.164062 112.003906 Z M 0.164062 0 " fill-opacity="1" fill-rule="nonzero"/></g><g clip-path="url(#bcff8c16bc)"><g transform="matrix(1, 0, 0, 1, 59, 20)"><g clip-path="url(#d1712be8fb)"><g clip-path="url(#fa18983ce5)"><path fill="#007a3f" d="M 71.582031 54.53125 L 71.582031 48.515625 L 85.144531 58.371094 L 79.964844 42.421875 L 93.53125 32.566406 L 76.761719 32.566406 L 71.582031 16.621094 L 66.398438 32.566406 L 7.679688 32.566406 L 0.980469 27.699219 L 62.863281 27.699219 L 71.582031 0.871094 L 80.296875 27.699219 L 108.507812 27.699219 L 85.6875 44.28125 L 94.402344 71.113281 L 71.582031 54.53125 " fill-opacity="1" fill-rule="nonzero"/></g></g></g></g><g fill="#ffffff" fill-opacity="1"><g transform="translate(45.238833, 44.280278)"><g><path d="M 9.078125 -10.4375 C 8.171875 -10.4375 7.390625 -10.097656 6.734375 -9.421875 C 6.078125 -8.753906 5.75 -7.945312 5.75 -7 C 5.75 -6.039062 6.078125 -5.222656 6.734375 -4.546875 C 7.390625 -3.878906 8.171875 -3.546875 9.078125 -3.546875 C 9.515625 -3.546875 9.925781 -3.597656 10.3125 -3.703125 C 10.707031 -3.816406 10.992188 -3.925781 11.171875 -4.03125 L 11.421875 -4.203125 L 13.046875 -0.84375 C 12.921875 -0.75 12.742188 -0.632812 12.515625 -0.5 C 12.296875 -0.363281 11.78125 -0.179688 10.96875 0.046875 C 10.15625 0.285156 9.285156 0.40625 8.359375 0.40625 C 6.304688 0.40625 4.503906 -0.3125 2.953125 -1.75 C 1.398438 -3.195312 0.625 -4.929688 0.625 -6.953125 C 0.625 -8.984375 1.398438 -10.726562 2.953125 -12.1875 C 4.503906 -13.65625 6.304688 -14.390625 8.359375 -14.390625 C 9.285156 -14.390625 10.140625 -14.28125 10.921875 -14.0625 C 11.703125 -13.84375 12.257812 -13.625 12.59375 -13.40625 L 13.046875 -13.078125 L 11.421875 -9.78125 C 10.816406 -10.21875 10.035156 -10.4375 9.078125 -10.4375 Z M 9.078125 -10.4375 "/></g></g></g><g fill="#ffffff" fill-opacity="1"><g transform="translate(56.303414, 44.280278)"><g><path d="M 2.578125 -1.734375 C 1.273438 -3.160156 0.625 -4.90625 0.625 -6.96875 C 0.625 -9.039062 1.273438 -10.796875 2.578125 -12.234375 C 3.890625 -13.671875 5.554688 -14.390625 7.578125 -14.390625 C 9.429688 -14.390625 10.957031 -13.804688 12.15625 -12.640625 L 12.15625 -13.984375 L 16.984375 -13.984375 L 16.984375 0 L 12.203125 0 L 12.203125 -1.578125 L 12.15625 -1.578125 C 10.957031 -0.253906 9.429688 0.40625 7.578125 0.40625 C 5.554688 0.40625 3.890625 -0.304688 2.578125 -1.734375 Z M 6.6875 -9.34375 C 6.0625 -8.726562 5.75 -7.9375 5.75 -6.96875 C 5.75 -6.007812 6.046875 -5.222656 6.640625 -4.609375 C 7.242188 -4.003906 8.035156 -3.703125 9.015625 -3.703125 C 9.960938 -3.703125 10.738281 -4.007812 11.34375 -4.625 C 11.957031 -5.25 12.265625 -6.03125 12.265625 -6.96875 C 12.265625 -7.9375 11.945312 -8.726562 11.3125 -9.34375 C 10.6875 -9.957031 9.921875 -10.265625 9.015625 -10.265625 C 8.085938 -10.265625 7.3125 -9.957031 6.6875 -9.34375 Z M 6.6875 -9.34375 "/></g></g></g><g fill="#ffffff" fill-opacity="1"><g transform="translate(72.600735, 44.280278)"><g><path d="M 1.640625 0 L 1.640625 -13.984375 L 6.453125 -13.984375 L 6.453125 -12.5 L 6.515625 -12.5 C 7.765625 -13.757812 9.097656 -14.390625 10.515625 -14.390625 C 11.203125 -14.390625 11.882812 -14.296875 12.5625 -14.109375 C 13.25 -13.929688 13.90625 -13.648438 14.53125 -13.265625 C 15.164062 -12.890625 15.675781 -12.347656 16.0625 -11.640625 C 16.457031 -10.941406 16.65625 -10.128906 16.65625 -9.203125 L 16.65625 0 L 11.828125 0 L 11.828125 -7.90625 C 11.828125 -8.632812 11.59375 -9.269531 11.125 -9.8125 C 10.664062 -10.351562 10.0625 -10.625 9.3125 -10.625 C 8.59375 -10.625 7.9375 -10.34375 7.34375 -9.78125 C 6.75 -9.21875 6.453125 -8.59375 6.453125 -7.90625 L 6.453125 0 Z M 1.640625 0 "/></g></g></g><g fill="#ffffff" fill-opacity="1"><g transform="translate(88.298465, 44.280278)"><g><path d="M 1.640625 0 L 1.640625 -13.984375 L 6.453125 -13.984375 L 6.453125 -12.5 L 6.515625 -12.5 C 7.765625 -13.757812 9.097656 -14.390625 10.515625 -14.390625 C 11.203125 -14.390625 11.882812 -14.296875 12.5625 -14.109375 C 13.25 -13.929688 13.90625 -13.648438 14.53125 -13.265625 C 15.164062 -12.890625 15.675781 -12.347656 16.0625 -11.640625 C 16.457031 -10.941406 16.65625 -10.128906 16.65625 -9.203125 L 16.65625 0 L 11.828125 0 L 11.828125 -7.90625 C 11.828125 -8.632812 11.59375 -9.269531 11.125 -9.8125 C 10.664062 -10.351562 10.0625 -10.625 9.3125 -10.625 C 8.59375 -10.625 7.9375 -10.34375 7.34375 -9.78125 C 6.75 -9.21875 6.453125 -8.59375 6.453125 -7.90625 L 6.453125 0 Z M 1.640625 0 "/></g></g></g><g fill="#ffffff" fill-opacity="1"><g transform="translate(103.996194, 44.280278)"><g><path d="M 2.578125 -1.734375 C 1.273438 -3.160156 0.625 -4.90625 0.625 -6.96875 C 0.625 -9.039062 1.273438 -10.796875 2.578125 -12.234375 C 3.890625 -13.671875 5.554688 -14.390625 7.578125 -14.390625 C 9.429688 -14.390625 10.957031 -13.804688 12.15625 -12.640625 L 12.15625 -13.984375 L 16.984375 -13.984375 L 16.984375 0 L 12.203125 0 L 12.203125 -1.578125 L 12.15625 -1.578125 C 10.957031 -0.253906 9.429688 0.40625 7.578125 0.40625 C 5.554688 0.40625 3.890625 -0.304688 2.578125 -1.734375 Z M 6.6875 -9.34375 C 6.0625 -8.726562 5.75 -7.9375 5.75 -6.96875 C 5.75 -6.007812 6.046875 -5.222656 6.640625 -4.609375 C 7.242188 -4.003906 8.035156 -3.703125 9.015625 -3.703125 C 9.960938 -3.703125 10.738281 -4.007812 11.34375 -4.625 C 11.957031 -5.25 12.265625 -6.03125 12.265625 -6.96875 C 12.265625 -7.9375 11.945312 -8.726562 11.3125 -9.34375 C 10.6875 -9.957031 9.921875 -10.265625 9.015625 -10.265625 C 8.085938 -10.265625 7.3125 -9.957031 6.6875 -9.34375 Z M 6.6875 -9.34375 "/></g></g></g><g fill="#ffffff" fill-opacity="1"><g transform="translate(22.722377, 76.683005)"><g><path d="M 2.453125 -13.984375 L 2.453125 -16.953125 C 2.472656 -19.035156 2.960938 -20.703125 3.921875 -21.953125 C 4.890625 -23.210938 6.226562 -23.84375 7.9375 -23.84375 C 8.65625 -23.84375 9.347656 -23.738281 10.015625 -23.53125 C 10.679688 -23.320312 11.15625 -23.109375 11.4375 -22.890625 L 11.90625 -22.59375 L 10.21875 -19.1875 C 9.78125 -19.4375 9.300781 -19.5625 8.78125 -19.5625 C 8.175781 -19.5625 7.773438 -19.359375 7.578125 -18.953125 C 7.378906 -18.546875 7.28125 -17.832031 7.28125 -16.8125 L 7.28125 -13.984375 L 10.484375 -13.984375 L 10.484375 -10.296875 L 7.28125 -10.296875 L 7.28125 0 L 2.453125 0 L 2.453125 -10.296875 L 0.4375 -10.296875 L 0.4375 -13.984375 Z M 2.453125 -13.984375 "/></g></g></g><g fill="#ffffff" fill-opacity="1"><g transform="translate(30.625503, 76.683005)"><g><path d="M 15.78125 -6.328125 L 5.640625 -6.328125 C 5.640625 -5.335938 5.957031 -4.609375 6.59375 -4.140625 C 7.226562 -3.671875 7.921875 -3.4375 8.671875 -3.4375 C 9.453125 -3.4375 10.066406 -3.539062 10.515625 -3.75 C 10.972656 -3.957031 11.492188 -4.367188 12.078125 -4.984375 L 15.5625 -3.25 C 14.101562 -0.8125 11.6875 0.40625 8.3125 0.40625 C 6.207031 0.40625 4.398438 -0.3125 2.890625 -1.75 C 1.378906 -3.195312 0.625 -4.9375 0.625 -6.96875 C 0.625 -9.007812 1.378906 -10.753906 2.890625 -12.203125 C 4.398438 -13.660156 6.207031 -14.390625 8.3125 -14.390625 C 10.53125 -14.390625 12.332031 -13.75 13.71875 -12.46875 C 15.113281 -11.1875 15.8125 -9.351562 15.8125 -6.96875 C 15.8125 -6.644531 15.800781 -6.429688 15.78125 -6.328125 Z M 5.78125 -9 L 11.09375 -9 C 10.976562 -9.71875 10.6875 -10.269531 10.21875 -10.65625 C 9.757812 -11.050781 9.171875 -11.25 8.453125 -11.25 C 7.648438 -11.25 7.007812 -11.039062 6.53125 -10.625 C 6.0625 -10.207031 5.8125 -9.664062 5.78125 -9 Z M 5.78125 -9 "/></g></g></g><g fill="#ffffff" fill-opacity="1"><g transform="translate(44.742517, 76.683005)"><g><path d="M 2.578125 -1.734375 C 1.273438 -3.160156 0.625 -4.90625 0.625 -6.96875 C 0.625 -9.039062 1.273438 -10.796875 2.578125 -12.234375 C 3.890625 -13.671875 5.554688 -14.390625 7.578125 -14.390625 C 9.429688 -14.390625 10.957031 -13.804688 12.15625 -12.640625 L 12.15625 -13.984375 L 16.984375 -13.984375 L 16.984375 0 L 12.203125 0 L 12.203125 -1.578125 L 12.15625 -1.578125 C 10.957031 -0.253906 9.429688 0.40625 7.578125 0.40625 C 5.554688 0.40625 3.890625 -0.304688 2.578125 -1.734375 Z M 6.6875 -9.34375 C 6.0625 -8.726562 5.75 -7.9375 5.75 -6.96875 C 5.75 -6.007812 6.046875 -5.222656 6.640625 -4.609375 C 7.242188 -4.003906 8.035156 -3.703125 9.015625 -3.703125 C 9.960938 -3.703125 10.738281 -4.007812 11.34375 -4.625 C 11.957031 -5.25 12.265625 -6.03125 12.265625 -6.96875 C 12.265625 -7.9375 11.945312 -8.726562 11.3125 -9.34375 C 10.6875 -9.957031 9.921875 -10.265625 9.015625 -10.265625 C 8.085938 -10.265625 7.3125 -9.957031 6.6875 -9.34375 Z M 6.6875 -9.34375 "/></g></g></g><g fill="#ffffff" fill-opacity="1"><g transform="translate(61.039838, 76.683005)"><g><path d="M 2.453125 -13.984375 L 2.453125 -19.1875 L 7.28125 -19.1875 L 7.28125 -13.984375 L 10.21875 -13.984375 L 10.21875 -10.296875 L 7.28125 -10.296875 L 7.28125 -5.859375 C 7.28125 -4.566406 7.640625 -3.921875 8.359375 -3.921875 C 8.546875 -3.921875 8.738281 -3.957031 8.9375 -4.03125 C 9.132812 -4.101562 9.289062 -4.175781 9.40625 -4.25 L 9.5625 -4.359375 L 10.765625 -0.46875 C 9.722656 0.113281 8.539062 0.40625 7.21875 0.40625 C 6.3125 0.40625 5.53125 0.25 4.875 -0.0625 C 4.21875 -0.382812 3.722656 -0.8125 3.390625 -1.34375 C 3.054688 -1.882812 2.816406 -2.445312 2.671875 -3.03125 C 2.523438 -3.625 2.453125 -4.257812 2.453125 -4.9375 L 2.453125 -10.296875 L 0.4375 -10.296875 L 0.4375 -13.984375 Z M 2.453125 -13.984375 "/></g></g></g><g fill="#ffffff" fill-opacity="1"><g transform="translate(69.488049, 76.683005)"><g><path d="M 6.1875 -13.984375 L 6.1875 -7.328125 C 6.1875 -5.953125 6.394531 -4.972656 6.8125 -4.390625 C 7.226562 -3.804688 7.9375 -3.515625 8.9375 -3.515625 C 9.9375 -3.515625 10.644531 -3.804688 11.0625 -4.390625 C 11.476562 -4.972656 11.6875 -5.953125 11.6875 -7.328125 L 11.6875 -13.984375 L 16.515625 -13.984375 L 16.515625 -6.15625 C 16.515625 -3.832031 15.910156 -2.15625 14.703125 -1.125 C 13.492188 -0.101562 11.570312 0.40625 8.9375 0.40625 C 6.300781 0.40625 4.378906 -0.101562 3.171875 -1.125 C 1.960938 -2.15625 1.359375 -3.832031 1.359375 -6.15625 L 1.359375 -13.984375 Z M 6.1875 -13.984375 "/></g></g></g><g fill="#ffffff" fill-opacity="1"><g transform="translate(85.049513, 76.683005)"><g><path d="M 1.640625 0 L 1.640625 -13.984375 L 6.453125 -13.984375 L 6.453125 -11.96875 L 6.515625 -11.96875 C 6.546875 -12.039062 6.601562 -12.128906 6.6875 -12.234375 C 6.769531 -12.347656 6.945312 -12.539062 7.21875 -12.8125 C 7.488281 -13.082031 7.78125 -13.328125 8.09375 -13.546875 C 8.40625 -13.765625 8.804688 -13.957031 9.296875 -14.125 C 9.785156 -14.300781 10.285156 -14.390625 10.796875 -14.390625 C 11.316406 -14.390625 11.832031 -14.316406 12.34375 -14.171875 C 12.851562 -14.023438 13.226562 -13.878906 13.46875 -13.734375 L 13.84375 -13.515625 L 11.828125 -9.421875 C 11.222656 -9.929688 10.382812 -10.1875 9.3125 -10.1875 C 8.738281 -10.1875 8.238281 -10.054688 7.8125 -9.796875 C 7.394531 -9.546875 7.097656 -9.238281 6.921875 -8.875 C 6.753906 -8.519531 6.632812 -8.210938 6.5625 -7.953125 C 6.488281 -7.703125 6.453125 -7.503906 6.453125 -7.359375 L 6.453125 0 Z M 1.640625 0 "/></g></g></g><g fill="#ffffff" fill-opacity="1"><g transform="translate(96.304867, 76.683005)"><g><path d="M 15.78125 -6.328125 L 5.640625 -6.328125 C 5.640625 -5.335938 5.957031 -4.609375 6.59375 -4.140625 C 7.226562 -3.671875 7.921875 -3.4375 8.671875 -3.4375 C 9.453125 -3.4375 10.066406 -3.539062 10.515625 -3.75 C 10.972656 -3.957031 11.492188 -4.367188 12.078125 -4.984375 L 15.5625 -3.25 C 14.101562 -0.8125 11.6875 0.40625 8.3125 0.40625 C 6.207031 0.40625 4.398438 -0.3125 2.890625 -1.75 C 1.378906 -3.195312 0.625 -4.9375 0.625 -6.96875 C 0.625 -9.007812 1.378906 -10.753906 2.890625 -12.203125 C 4.398438 -13.660156 6.207031 -14.390625 8.3125 -14.390625 C 10.53125 -14.390625 12.332031 -13.75 13.71875 -12.46875 C 15.113281 -11.1875 15.8125 -9.351562 15.8125 -6.96875 C 15.8125 -6.644531 15.800781 -6.429688 15.78125 -6.328125 Z M 5.78125 -9 L 11.09375 -9 C 10.976562 -9.71875 10.6875 -10.269531 10.21875 -10.65625 C 9.757812 -11.050781 9.171875 -11.25 8.453125 -11.25 C 7.648438 -11.25 7.007812 -11.039062 6.53125 -10.625 C 6.0625 -10.207031 5.8125 -9.664062 5.78125 -9 Z M 5.78125 -9 "/></g></g></g><g fill="#ffffff" fill-opacity="1"><g transform="translate(110.42188, 76.683005)"><g><path d="M 2.578125 -1.734375 C 1.273438 -3.160156 0.625 -4.90625 0.625 -6.96875 C 0.625 -9.039062 1.273438 -10.796875 2.578125 -12.234375 C 3.890625 -13.671875 5.554688 -14.390625 7.578125 -14.390625 C 9.429688 -14.390625 10.957031 -13.804688 12.15625 -12.640625 L 12.15625 -23.4375 L 16.984375 -23.4375 L 16.984375 0 L 12.203125 0 L 12.203125 -1.578125 L 12.15625 -1.578125 C 10.957031 -0.253906 9.429688 0.40625 7.578125 0.40625 C 5.554688 0.40625 3.890625 -0.304688 2.578125 -1.734375 Z M 6.6875 -9.34375 C 6.0625 -8.726562 5.75 -7.9375 5.75 -6.96875 C 5.75 -6.007812 6.046875 -5.222656 6.640625 -4.609375 C 7.242188 -4.003906 8.035156 -3.703125 9.015625 -3.703125 C 9.960938 -3.703125 10.738281 -4.007812 11.34375 -4.625 C 11.957031 -5.25 12.265625 -6.03125 12.265625 -6.96875 C 12.265625 -7.9375 11.945312 -8.726562 11.3125 -9.34375 C 10.6875 -9.957031 9.921875 -10.265625 9.015625 -10.265625 C 8.085938 -10.265625 7.3125 -9.957031 6.6875 -9.34375 Z M 6.6875 -9.34375 "/></g></g></g></svg>