<svg xmlns="http://www.w3.org/2000/svg" xmlns:xlink="http://www.w3.org/1999/xlink" width="500" zoomAndPan="magnify" viewBox="0 0 375 374.999991" height="500" preserveAspectRatio="xMidYMid meet" version="1.0"><defs><g/><clipPath id="b4ced3fbbd"><path d="M 98.433594 101.101562 L 363.183594 101.101562 L 363.183594 273.601562 L 98.433594 273.601562 Z M 98.433594 101.101562 " clip-rule="nonzero"/></clipPath><clipPath id="c74f4dd2da"><path d="M 0.503906 0.101562 L 265.121094 0.101562 L 265.121094 172.601562 L 0.503906 172.601562 Z M 0.503906 0.101562 " clip-rule="nonzero"/></clipPath><clipPath id="9366a8f25a"><rect x="0" width="266" y="0" height="173"/></clipPath></defs><rect x="-37.5" width="450" fill="#ffffff" y="-37.499999" height="449.999989" fill-opacity="1"/><rect x="-37.5" width="450" fill="#ffffff" y="-37.499999" height="449.999989" fill-opacity="1"/><g clip-path="url(#b4ced3fbbd)"><g transform="matrix(1, 0, 0, 1, 98, 101)"><g clip-path="url(#9366a8f25a)"><g clip-path="url(#c74f4dd2da)"><path fill="#007a3f" d="M 174.246094 132.089844 L 174.246094 117.292969 L 207.613281 141.535156 L 194.867188 102.308594 L 228.234375 78.066406 L 186.992188 78.066406 L 174.246094 38.839844 L 161.5 78.066406 L 17.058594 78.066406 L 0.582031 66.09375 L 152.800781 66.09375 L 174.246094 0.09375 L 195.6875 66.09375 L 265.082031 66.09375 L 208.941406 106.882812 L 230.386719 172.878906 L 174.246094 132.089844 " fill-opacity="1" fill-rule="nonzero"/></g></g></g></g><g fill="#ffffff" fill-opacity="1"><g transform="translate(62.362149, 158.897274)"><g><path d="M 22.328125 -25.671875 C 20.085938 -25.671875 18.160156 -24.84375 16.546875 -23.1875 C 14.941406 -21.539062 14.140625 -19.554688 14.140625 -17.234375 C 14.140625 -14.859375 14.941406 -12.84375 16.546875 -11.1875 C 18.160156 -9.539062 20.085938 -8.71875 22.328125 -8.71875 C 23.398438 -8.71875 24.414062 -8.847656 25.375 -9.109375 C 26.332031 -9.378906 27.035156 -9.648438 27.484375 -9.921875 L 28.09375 -10.328125 L 32.109375 -2.078125 C 31.796875 -1.859375 31.359375 -1.578125 30.796875 -1.234375 C 30.242188 -0.898438 28.972656 -0.445312 26.984375 0.125 C 24.992188 0.707031 22.859375 1 20.578125 1 C 15.523438 1 11.085938 -0.773438 7.265625 -4.328125 C 3.453125 -7.878906 1.546875 -12.132812 1.546875 -17.09375 C 1.546875 -22.101562 3.453125 -26.40625 7.265625 -30 C 11.085938 -33.601562 15.523438 -35.40625 20.578125 -35.40625 C 22.859375 -35.40625 24.957031 -35.132812 26.875 -34.59375 C 28.800781 -34.0625 30.164062 -33.523438 30.96875 -32.984375 L 32.109375 -32.1875 L 28.09375 -24.0625 C 26.613281 -25.132812 24.691406 -25.671875 22.328125 -25.671875 Z M 22.328125 -25.671875 "/></g></g></g><g fill="#ffffff" fill-opacity="1"><g transform="translate(89.575705, 158.897274)"><g><path d="M 6.375 -4.25 C 3.15625 -7.757812 1.546875 -12.0625 1.546875 -17.15625 C 1.546875 -22.257812 3.15625 -26.578125 6.375 -30.109375 C 9.59375 -33.640625 13.679688 -35.40625 18.640625 -35.40625 C 23.203125 -35.40625 26.957031 -33.972656 29.90625 -31.109375 L 29.90625 -34.390625 L 41.765625 -34.390625 L 41.765625 0 L 30.03125 0 L 30.03125 -3.890625 L 29.90625 -3.890625 C 26.957031 -0.628906 23.203125 1 18.640625 1 C 13.679688 1 9.59375 -0.75 6.375 -4.25 Z M 16.453125 -23 C 14.910156 -21.476562 14.140625 -19.53125 14.140625 -17.15625 C 14.140625 -14.789062 14.878906 -12.859375 16.359375 -11.359375 C 17.835938 -9.867188 19.78125 -9.125 22.1875 -9.125 C 24.507812 -9.125 26.421875 -9.878906 27.921875 -11.390625 C 29.421875 -12.910156 30.171875 -14.832031 30.171875 -17.15625 C 30.171875 -19.53125 29.398438 -21.476562 27.859375 -23 C 26.316406 -24.519531 24.425781 -25.28125 22.1875 -25.28125 C 19.90625 -25.28125 17.992188 -24.519531 16.453125 -23 Z M 16.453125 -23 "/></g></g></g><g fill="#ffffff" fill-opacity="1"><g transform="translate(129.659263, 158.897274)"><g><path d="M 4.015625 0 L 4.015625 -34.390625 L 15.890625 -34.390625 L 15.890625 -30.78125 L 16.03125 -30.78125 C 19.113281 -33.863281 22.394531 -35.40625 25.875 -35.40625 C 27.570312 -35.40625 29.257812 -35.179688 30.9375 -34.734375 C 32.613281 -34.285156 34.222656 -33.59375 35.765625 -32.65625 C 37.304688 -31.71875 38.554688 -30.382812 39.515625 -28.65625 C 40.484375 -26.9375 40.96875 -24.9375 40.96875 -22.65625 L 40.96875 0 L 29.09375 0 L 29.09375 -19.4375 C 29.09375 -21.226562 28.519531 -22.789062 27.375 -24.125 C 26.238281 -25.46875 24.757812 -26.140625 22.9375 -26.140625 C 21.144531 -26.140625 19.519531 -25.445312 18.0625 -24.0625 C 16.613281 -22.675781 15.890625 -21.132812 15.890625 -19.4375 L 15.890625 0 Z M 4.015625 0 "/></g></g></g><g fill="#ffffff" fill-opacity="1"><g transform="translate(168.268136, 158.897274)"><g><path d="M 4.015625 0 L 4.015625 -34.390625 L 15.890625 -34.390625 L 15.890625 -30.78125 L 16.03125 -30.78125 C 19.113281 -33.863281 22.394531 -35.40625 25.875 -35.40625 C 27.570312 -35.40625 29.257812 -35.179688 30.9375 -34.734375 C 32.613281 -34.285156 34.222656 -33.59375 35.765625 -32.65625 C 37.304688 -31.71875 38.554688 -30.382812 39.515625 -28.65625 C 40.484375 -26.9375 40.96875 -24.9375 40.96875 -22.65625 L 40.96875 0 L 29.09375 0 L 29.09375 -19.4375 C 29.09375 -21.226562 28.519531 -22.789062 27.375 -24.125 C 26.238281 -25.46875 24.757812 -26.140625 22.9375 -26.140625 C 21.144531 -26.140625 19.519531 -25.445312 18.0625 -24.0625 C 16.613281 -22.675781 15.890625 -21.132812 15.890625 -19.4375 L 15.890625 0 Z M 4.015625 0 "/></g></g></g><g fill="#ffffff" fill-opacity="1"><g transform="translate(206.877008, 158.897274)"><g><path d="M 6.375 -4.25 C 3.15625 -7.757812 1.546875 -12.0625 1.546875 -17.15625 C 1.546875 -22.257812 3.15625 -26.578125 6.375 -30.109375 C 9.59375 -33.640625 13.679688 -35.40625 18.640625 -35.40625 C 23.203125 -35.40625 26.957031 -33.972656 29.90625 -31.109375 L 29.90625 -34.390625 L 41.765625 -34.390625 L 41.765625 0 L 30.03125 0 L 30.03125 -3.890625 L 29.90625 -3.890625 C 26.957031 -0.628906 23.203125 1 18.640625 1 C 13.679688 1 9.59375 -0.75 6.375 -4.25 Z M 16.453125 -23 C 14.910156 -21.476562 14.140625 -19.53125 14.140625 -17.15625 C 14.140625 -14.789062 14.878906 -12.859375 16.359375 -11.359375 C 17.835938 -9.867188 19.78125 -9.125 22.1875 -9.125 C 24.507812 -9.125 26.421875 -9.878906 27.921875 -11.390625 C 29.421875 -12.910156 30.171875 -14.832031 30.171875 -17.15625 C 30.171875 -19.53125 29.398438 -21.476562 27.859375 -23 C 26.316406 -24.519531 24.425781 -25.28125 22.1875 -25.28125 C 19.90625 -25.28125 17.992188 -24.519531 16.453125 -23 Z M 16.453125 -23 "/></g></g></g><g fill="#ffffff" fill-opacity="1"><g transform="translate(18.720157, 238.591055)"><g><path d="M 6.03125 -34.390625 L 6.03125 -41.703125 C 6.070312 -46.835938 7.273438 -50.945312 9.640625 -54.03125 C 12.015625 -57.125 15.304688 -58.671875 19.515625 -58.671875 C 21.296875 -58.671875 23.003906 -58.410156 24.640625 -57.890625 C 26.273438 -57.378906 27.445312 -56.851562 28.15625 -56.3125 L 29.296875 -55.578125 L 25.140625 -47.203125 C 24.066406 -47.828125 22.882812 -48.140625 21.59375 -48.140625 C 20.113281 -48.140625 19.128906 -47.632812 18.640625 -46.625 C 18.148438 -45.625 17.90625 -43.875 17.90625 -41.375 L 17.90625 -34.390625 L 25.8125 -34.390625 L 25.8125 -25.34375 L 17.90625 -25.34375 L 17.90625 0 L 6.03125 0 L 6.03125 -25.34375 L 1.078125 -25.34375 L 1.078125 -34.390625 Z M 6.03125 -34.390625 "/></g></g></g><g fill="#ffffff" fill-opacity="1"><g transform="translate(38.158082, 238.591055)"><g><path d="M 38.8125 -15.5625 L 13.875 -15.5625 C 13.875 -13.144531 14.65625 -11.351562 16.21875 -10.1875 C 17.789062 -9.03125 19.492188 -8.453125 21.328125 -8.453125 C 23.242188 -8.453125 24.757812 -8.707031 25.875 -9.21875 C 27 -9.726562 28.273438 -10.742188 29.703125 -12.265625 L 38.28125 -7.984375 C 34.707031 -1.992188 28.765625 1 20.453125 1 C 15.265625 1 10.816406 -0.773438 7.109375 -4.328125 C 3.398438 -7.878906 1.546875 -12.15625 1.546875 -17.15625 C 1.546875 -22.164062 3.398438 -26.457031 7.109375 -30.03125 C 10.816406 -33.613281 15.265625 -35.40625 20.453125 -35.40625 C 25.898438 -35.40625 30.332031 -33.828125 33.75 -30.671875 C 37.175781 -27.523438 38.890625 -23.019531 38.890625 -17.15625 C 38.890625 -16.351562 38.863281 -15.820312 38.8125 -15.5625 Z M 14.21875 -22.125 L 27.28125 -22.125 C 27.019531 -23.914062 26.316406 -25.289062 25.171875 -26.25 C 24.035156 -27.207031 22.570312 -27.6875 20.78125 -27.6875 C 18.8125 -27.6875 17.242188 -27.171875 16.078125 -26.140625 C 14.921875 -25.117188 14.300781 -23.78125 14.21875 -22.125 Z M 14.21875 -22.125 "/></g></g></g><g fill="#ffffff" fill-opacity="1"><g transform="translate(72.879146, 238.591055)"><g><path d="M 6.375 -4.25 C 3.15625 -7.757812 1.546875 -12.0625 1.546875 -17.15625 C 1.546875 -22.257812 3.15625 -26.578125 6.375 -30.109375 C 9.59375 -33.640625 13.679688 -35.40625 18.640625 -35.40625 C 23.203125 -35.40625 26.957031 -33.972656 29.90625 -31.109375 L 29.90625 -34.390625 L 41.765625 -34.390625 L 41.765625 0 L 30.03125 0 L 30.03125 -3.890625 L 29.90625 -3.890625 C 26.957031 -0.628906 23.203125 1 18.640625 1 C 13.679688 1 9.59375 -0.75 6.375 -4.25 Z M 16.453125 -23 C 14.910156 -21.476562 14.140625 -19.53125 14.140625 -17.15625 C 14.140625 -14.789062 14.878906 -12.859375 16.359375 -11.359375 C 17.835938 -9.867188 19.78125 -9.125 22.1875 -9.125 C 24.507812 -9.125 26.421875 -9.878906 27.921875 -11.390625 C 29.421875 -12.910156 30.171875 -14.832031 30.171875 -17.15625 C 30.171875 -19.53125 29.398438 -21.476562 27.859375 -23 C 26.316406 -24.519531 24.425781 -25.28125 22.1875 -25.28125 C 19.90625 -25.28125 17.992188 -24.519531 16.453125 -23 Z M 16.453125 -23 "/></g></g></g><g fill="#ffffff" fill-opacity="1"><g transform="translate(112.962704, 238.591055)"><g><path d="M 6.03125 -34.390625 L 6.03125 -47.203125 L 17.90625 -47.203125 L 17.90625 -34.390625 L 25.140625 -34.390625 L 25.140625 -25.34375 L 17.90625 -25.34375 L 17.90625 -14.421875 C 17.90625 -11.242188 18.796875 -9.65625 20.578125 -9.65625 C 21.023438 -9.65625 21.492188 -9.742188 21.984375 -9.921875 C 22.484375 -10.097656 22.863281 -10.273438 23.125 -10.453125 L 23.53125 -10.734375 L 26.484375 -1.140625 C 23.929688 0.285156 21.023438 1 17.765625 1 C 15.535156 1 13.613281 0.609375 12 -0.171875 C 10.394531 -0.953125 9.175781 -2 8.34375 -3.3125 C 7.519531 -4.632812 6.925781 -6.019531 6.5625 -7.46875 C 6.207031 -8.925781 6.03125 -10.484375 6.03125 -12.140625 L 6.03125 -25.34375 L 1.078125 -25.34375 L 1.078125 -34.390625 Z M 6.03125 -34.390625 "/></g></g></g><g fill="#ffffff" fill-opacity="1"><g transform="translate(133.741259, 238.591055)"><g><path d="M 15.21875 -34.390625 L 15.21875 -18.03125 C 15.21875 -14.632812 15.726562 -12.222656 16.75 -10.796875 C 17.78125 -9.367188 19.523438 -8.65625 21.984375 -8.65625 C 24.441406 -8.65625 26.1875 -9.367188 27.21875 -10.796875 C 28.25 -12.222656 28.765625 -14.632812 28.765625 -18.03125 L 28.765625 -34.390625 L 40.625 -34.390625 L 40.625 -15.15625 C 40.625 -9.4375 39.140625 -5.3125 36.171875 -2.78125 C 33.203125 -0.257812 28.472656 1 21.984375 1 C 15.503906 1 10.78125 -0.257812 7.8125 -2.78125 C 4.84375 -5.3125 3.359375 -9.4375 3.359375 -15.15625 L 3.359375 -34.390625 Z M 15.21875 -34.390625 "/></g></g></g><g fill="#ffffff" fill-opacity="1"><g transform="translate(172.01498, 238.591055)"><g><path d="M 4.015625 0 L 4.015625 -34.390625 L 15.890625 -34.390625 L 15.890625 -29.4375 L 16.03125 -29.4375 C 16.113281 -29.613281 16.253906 -29.832031 16.453125 -30.09375 C 16.660156 -30.363281 17.097656 -30.832031 17.765625 -31.5 C 18.429688 -32.175781 19.144531 -32.78125 19.90625 -33.3125 C 20.664062 -33.851562 21.648438 -34.335938 22.859375 -34.765625 C 24.066406 -35.191406 25.296875 -35.40625 26.546875 -35.40625 C 27.847656 -35.40625 29.125 -35.222656 30.375 -34.859375 C 31.625 -34.503906 32.539062 -34.148438 33.125 -33.796875 L 34.0625 -33.25 L 29.09375 -23.203125 C 27.625 -24.453125 25.570312 -25.078125 22.9375 -25.078125 C 21.5 -25.078125 20.265625 -24.765625 19.234375 -24.140625 C 18.210938 -23.515625 17.488281 -22.753906 17.0625 -21.859375 C 16.632812 -20.960938 16.332031 -20.203125 16.15625 -19.578125 C 15.976562 -18.953125 15.890625 -18.460938 15.890625 -18.109375 L 15.890625 0 Z M 4.015625 0 "/></g></g></g><g fill="#ffffff" fill-opacity="1"><g transform="translate(199.697756, 238.591055)"><g><path d="M 38.8125 -15.5625 L 13.875 -15.5625 C 13.875 -13.144531 14.65625 -11.351562 16.21875 -10.1875 C 17.789062 -9.03125 19.492188 -8.453125 21.328125 -8.453125 C 23.242188 -8.453125 24.757812 -8.707031 25.875 -9.21875 C 27 -9.726562 28.273438 -10.742188 29.703125 -12.265625 L 38.28125 -7.984375 C 34.707031 -1.992188 28.765625 1 20.453125 1 C 15.265625 1 10.816406 -0.773438 7.109375 -4.328125 C 3.398438 -7.878906 1.546875 -12.15625 1.546875 -17.15625 C 1.546875 -22.164062 3.398438 -26.457031 7.109375 -30.03125 C 10.816406 -33.613281 15.265625 -35.40625 20.453125 -35.40625 C 25.898438 -35.40625 30.332031 -33.828125 33.75 -30.671875 C 37.175781 -27.523438 38.890625 -23.019531 38.890625 -17.15625 C 38.890625 -16.351562 38.863281 -15.820312 38.8125 -15.5625 Z M 14.21875 -22.125 L 27.28125 -22.125 C 27.019531 -23.914062 26.316406 -25.289062 25.171875 -26.25 C 24.035156 -27.207031 22.570312 -27.6875 20.78125 -27.6875 C 18.8125 -27.6875 17.242188 -27.171875 16.078125 -26.140625 C 14.921875 -25.117188 14.300781 -23.78125 14.21875 -22.125 Z M 14.21875 -22.125 "/></g></g></g><g fill="#ffffff" fill-opacity="1"><g transform="translate(234.418819, 238.591055)"><g><path d="M 6.375 -4.25 C 3.15625 -7.757812 1.546875 -12.0625 1.546875 -17.15625 C 1.546875 -22.257812 3.15625 -26.578125 6.375 -30.109375 C 9.59375 -33.640625 13.679688 -35.40625 18.640625 -35.40625 C 23.203125 -35.40625 26.957031 -33.972656 29.90625 -31.109375 L 29.90625 -57.65625 L 41.765625 -57.65625 L 41.765625 0 L 30.03125 0 L 30.03125 -3.890625 L 29.90625 -3.890625 C 26.957031 -0.628906 23.203125 1 18.640625 1 C 13.679688 1 9.59375 -0.75 6.375 -4.25 Z M 16.453125 -23 C 14.910156 -21.476562 14.140625 -19.53125 14.140625 -17.15625 C 14.140625 -14.789062 14.878906 -12.859375 16.359375 -11.359375 C 17.835938 -9.867188 19.78125 -9.125 22.1875 -9.125 C 24.507812 -9.125 26.421875 -9.878906 27.921875 -11.390625 C 29.421875 -12.910156 30.171875 -14.832031 30.171875 -17.15625 C 30.171875 -19.53125 29.398438 -21.476562 27.859375 -23 C 26.316406 -24.519531 24.425781 -25.28125 22.1875 -25.28125 C 19.90625 -25.28125 17.992188 -24.519531 16.453125 -23 Z M 16.453125 -23 "/></g></g></g></svg>