<svg xmlns="http://www.w3.org/2000/svg" xmlns:xlink="http://www.w3.org/1999/xlink" width="40" zoomAndPan="magnify" viewBox="0 0 30 30.000001" height="40" preserveAspectRatio="xMidYMid meet" version="1.0"><defs><clipPath id="92c53b0fef"><path d="M 0.484375 0 L 29.515625 0 L 29.515625 29.03125 L 0.484375 29.03125 Z M 0.484375 0 " clip-rule="nonzero"/></clipPath><clipPath id="dd53ff77d1"><path d="M 0.484375 0 L 29.515625 0 L 29.515625 29.03125 L 0.484375 29.03125 Z M 0.484375 0 " clip-rule="nonzero"/></clipPath><clipPath id="8cde00c2c4"><rect x="0" width="30" y="0" height="30"/></clipPath></defs><g clip-path="url(#92c53b0fef)"><path fill="#ffffff" d="M 0.484375 0 L 29.515625 0 L 29.515625 29.03125 L 0.484375 29.03125 Z M 0.484375 0 " fill-opacity="1" fill-rule="nonzero"/><path fill="#ffffff" d="M 0.484375 0 L 29.515625 0 L 29.515625 29.03125 L 0.484375 29.03125 Z M 0.484375 0 " fill-opacity="1" fill-rule="nonzero"/><g transform="matrix(1, 0, 0, 1, 0, 0.000000000000005692)"><g clip-path="url(#8cde00c2c4)"><g clip-path="url(#dd53ff77d1)"><path fill="#007a3f" d="M 14.726562 22.5625 L 14.726562 19.949219 L 20.617188 24.230469 L 18.367188 17.304688 L 24.257812 13.023438 L 16.976562 13.023438 L 14.726562 6.097656 L 12.476562 13.023438 L -13.023438 13.023438 L -15.933594 10.910156 L 10.941406 10.910156 L 14.726562 -0.742188 L 18.511719 10.910156 L 30.765625 10.910156 L 20.851562 18.109375 L 24.636719 29.761719 L 14.726562 22.5625 " fill-opacity="1" fill-rule="nonzero"/></g></g></g></g></svg>