<svg xmlns="http://www.w3.org/2000/svg" xmlns:xlink="http://www.w3.org/1999/xlink" width="500" zoomAndPan="magnify" viewBox="0 0 375 374.999991" height="500" preserveAspectRatio="xMidYMid meet" version="1.0"><defs><g/><clipPath id="560185014e"><path d="M 98.433594 101.101562 L 363.183594 101.101562 L 363.183594 273.601562 L 98.433594 273.601562 Z M 98.433594 101.101562 " clip-rule="nonzero"/></clipPath><clipPath id="4d8b9e2490"><path d="M 0.503906 0.101562 L 265.121094 0.101562 L 265.121094 172.601562 L 0.503906 172.601562 Z M 0.503906 0.101562 " clip-rule="nonzero"/></clipPath><clipPath id="6699ea888d"><rect x="0" width="266" y="0" height="173"/></clipPath><clipPath id="5ab47f7102"><rect x="0" width="190" y="0" height="85"/></clipPath><clipPath id="8303603478"><rect x="0" width="262" y="0" height="85"/></clipPath></defs><rect x="-37.5" width="450" fill="#ffffff" y="-37.499999" height="449.999989" fill-opacity="1"/><rect x="-37.5" width="450" fill="#ffffff" y="-37.499999" height="449.999989" fill-opacity="1"/><g clip-path="url(#560185014e)"><g transform="matrix(1, 0, 0, 1, 98, 101)"><g clip-path="url(#6699ea888d)"><g clip-path="url(#4d8b9e2490)"><path fill="#007a3f" d="M 174.246094 132.089844 L 174.246094 117.292969 L 207.613281 141.535156 L 194.867188 102.308594 L 228.234375 78.066406 L 186.992188 78.066406 L 174.246094 38.839844 L 161.5 78.066406 L 17.058594 78.066406 L 0.582031 66.09375 L 152.800781 66.09375 L 174.246094 0.09375 L 195.6875 66.09375 L 265.082031 66.09375 L 208.941406 106.882812 L 230.386719 172.878906 L 174.246094 132.089844 " fill-opacity="1" fill-rule="nonzero"/></g></g></g></g><g transform="matrix(1, 0, 0, 1, 62, 98)"><g clip-path="url(#5ab47f7102)"><g fill="#000000" fill-opacity="1"><g transform="translate(0.370886, 61.215624)"><g><path d="M 22.328125 -25.671875 C 20.085938 -25.671875 18.160156 -24.84375 16.546875 -23.1875 C 14.941406 -21.539062 14.140625 -19.554688 14.140625 -17.234375 C 14.140625 -14.859375 14.941406 -12.84375 16.546875 -11.1875 C 18.160156 -9.539062 20.085938 -8.71875 22.328125 -8.71875 C 23.398438 -8.71875 24.414062 -8.847656 25.375 -9.109375 C 26.332031 -9.378906 27.035156 -9.648438 27.484375 -9.921875 L 28.09375 -10.328125 L 32.109375 -2.078125 C 31.796875 -1.859375 31.359375 -1.578125 30.796875 -1.234375 C 30.242188 -0.898438 28.972656 -0.445312 26.984375 0.125 C 24.992188 0.707031 22.859375 1 20.578125 1 C 15.523438 1 11.085938 -0.773438 7.265625 -4.328125 C 3.453125 -7.878906 1.546875 -12.132812 1.546875 -17.09375 C 1.546875 -22.09375 3.453125 -26.390625 7.265625 -29.984375 C 11.085938 -33.585938 15.523438 -35.390625 20.578125 -35.390625 C 22.859375 -35.390625 24.957031 -35.117188 26.875 -34.578125 C 28.800781 -34.046875 30.164062 -33.515625 30.96875 -32.984375 L 32.109375 -32.171875 L 28.09375 -24.0625 C 26.613281 -25.132812 24.691406 -25.671875 22.328125 -25.671875 Z M 22.328125 -25.671875 "/></g></g></g><g fill="#000000" fill-opacity="1"><g transform="translate(27.582856, 61.215624)"><g><path d="M 6.359375 -4.25 C 3.148438 -7.757812 1.546875 -12.0625 1.546875 -17.15625 C 1.546875 -22.25 3.148438 -26.5625 6.359375 -30.09375 C 9.578125 -33.625 13.671875 -35.390625 18.640625 -35.390625 C 23.191406 -35.390625 26.941406 -33.960938 29.890625 -31.109375 L 29.890625 -34.390625 L 41.765625 -34.390625 L 41.765625 0 L 30.03125 0 L 30.03125 -3.890625 L 29.890625 -3.890625 C 26.941406 -0.628906 23.191406 1 18.640625 1 C 13.671875 1 9.578125 -0.75 6.359375 -4.25 Z M 16.453125 -22.984375 C 14.910156 -21.472656 14.140625 -19.53125 14.140625 -17.15625 C 14.140625 -14.789062 14.875 -12.859375 16.34375 -11.359375 C 17.820312 -9.859375 19.769531 -9.109375 22.1875 -9.109375 C 24.507812 -9.109375 26.414062 -9.867188 27.90625 -11.390625 C 29.40625 -12.910156 30.15625 -14.832031 30.15625 -17.15625 C 30.15625 -19.53125 29.382812 -21.472656 27.84375 -22.984375 C 26.300781 -24.503906 24.414062 -25.265625 22.1875 -25.265625 C 19.90625 -25.265625 17.992188 -24.503906 16.453125 -22.984375 Z M 16.453125 -22.984375 "/></g></g></g><g fill="#000000" fill-opacity="1"><g transform="translate(67.66421, 61.215624)"><g><path d="M 4.015625 0 L 4.015625 -34.390625 L 15.890625 -34.390625 L 15.890625 -30.765625 L 16.015625 -30.765625 C 19.097656 -33.847656 22.382812 -35.390625 25.875 -35.390625 C 27.570312 -35.390625 29.257812 -35.164062 30.9375 -34.71875 C 32.613281 -34.269531 34.222656 -33.578125 35.765625 -32.640625 C 37.304688 -31.703125 38.554688 -30.375 39.515625 -28.65625 C 40.472656 -26.9375 40.953125 -24.9375 40.953125 -22.65625 L 40.953125 0 L 29.09375 0 L 29.09375 -19.4375 C 29.09375 -21.226562 28.519531 -22.789062 27.375 -24.125 C 26.238281 -25.46875 24.753906 -26.140625 22.921875 -26.140625 C 21.140625 -26.140625 19.519531 -25.445312 18.0625 -24.0625 C 16.613281 -22.675781 15.890625 -21.132812 15.890625 -19.4375 L 15.890625 0 Z M 4.015625 0 "/></g></g></g><g fill="#000000" fill-opacity="1"><g transform="translate(106.270964, 61.215624)"><g><path d="M 4.015625 0 L 4.015625 -34.390625 L 15.890625 -34.390625 L 15.890625 -30.765625 L 16.015625 -30.765625 C 19.097656 -33.847656 22.382812 -35.390625 25.875 -35.390625 C 27.570312 -35.390625 29.257812 -35.164062 30.9375 -34.71875 C 32.613281 -34.269531 34.222656 -33.578125 35.765625 -32.640625 C 37.304688 -31.703125 38.554688 -30.375 39.515625 -28.65625 C 40.472656 -26.9375 40.953125 -24.9375 40.953125 -22.65625 L 40.953125 0 L 29.09375 0 L 29.09375 -19.4375 C 29.09375 -21.226562 28.519531 -22.789062 27.375 -24.125 C 26.238281 -25.46875 24.753906 -26.140625 22.921875 -26.140625 C 21.140625 -26.140625 19.519531 -25.445312 18.0625 -24.0625 C 16.613281 -22.675781 15.890625 -21.132812 15.890625 -19.4375 L 15.890625 0 Z M 4.015625 0 "/></g></g></g><g fill="#000000" fill-opacity="1"><g transform="translate(144.877718, 61.215624)"><g><path d="M 6.359375 -4.25 C 3.148438 -7.757812 1.546875 -12.0625 1.546875 -17.15625 C 1.546875 -22.25 3.148438 -26.5625 6.359375 -30.09375 C 9.578125 -33.625 13.671875 -35.390625 18.640625 -35.390625 C 23.191406 -35.390625 26.941406 -33.960938 29.890625 -31.109375 L 29.890625 -34.390625 L 41.765625 -34.390625 L 41.765625 0 L 30.03125 0 L 30.03125 -3.890625 L 29.890625 -3.890625 C 26.941406 -0.628906 23.191406 1 18.640625 1 C 13.671875 1 9.578125 -0.75 6.359375 -4.25 Z M 16.453125 -22.984375 C 14.910156 -21.472656 14.140625 -19.53125 14.140625 -17.15625 C 14.140625 -14.789062 14.875 -12.859375 16.34375 -11.359375 C 17.820312 -9.859375 19.769531 -9.109375 22.1875 -9.109375 C 24.507812 -9.109375 26.414062 -9.867188 27.90625 -11.390625 C 29.40625 -12.910156 30.15625 -14.832031 30.15625 -17.15625 C 30.15625 -19.53125 29.382812 -21.472656 27.84375 -22.984375 C 26.300781 -24.503906 24.414062 -25.265625 22.1875 -25.265625 C 19.90625 -25.265625 17.992188 -24.503906 16.453125 -22.984375 Z M 16.453125 -22.984375 "/></g></g></g></g></g><g transform="matrix(1, 0, 0, 1, 17, 178)"><g clip-path="url(#8303603478)"><g fill="#000000" fill-opacity="1"><g transform="translate(1.723889, 60.909403)"><g><path d="M 6.03125 -34.390625 L 6.03125 -41.6875 C 6.070312 -46.832031 7.273438 -50.945312 9.640625 -54.03125 C 12.015625 -57.113281 15.300781 -58.65625 19.5 -58.65625 C 21.289062 -58.65625 23 -58.394531 24.625 -57.875 C 26.257812 -57.363281 27.4375 -56.84375 28.15625 -56.3125 L 29.296875 -55.5625 L 25.140625 -47.1875 C 24.066406 -47.8125 22.878906 -48.125 21.578125 -48.125 C 20.109375 -48.125 19.125 -47.617188 18.625 -46.609375 C 18.132812 -45.609375 17.890625 -43.859375 17.890625 -41.359375 L 17.890625 -34.390625 L 25.8125 -34.390625 L 25.8125 -25.34375 L 17.890625 -25.34375 L 17.890625 0 L 6.03125 0 L 6.03125 -25.34375 L 1.078125 -25.34375 L 1.078125 -34.390625 Z M 6.03125 -34.390625 "/></g></g></g><g fill="#000000" fill-opacity="1"><g transform="translate(21.160617, 60.909403)"><g><path d="M 38.8125 -15.546875 L 13.875 -15.546875 C 13.875 -13.140625 14.65625 -11.351562 16.21875 -10.1875 C 17.78125 -9.03125 19.476562 -8.453125 21.3125 -8.453125 C 23.238281 -8.453125 24.757812 -8.707031 25.875 -9.21875 C 26.988281 -9.726562 28.257812 -10.742188 29.6875 -12.265625 L 38.28125 -7.984375 C 34.695312 -1.992188 28.75 1 20.4375 1 C 15.257812 1 10.816406 -0.773438 7.109375 -4.328125 C 3.398438 -7.878906 1.546875 -12.15625 1.546875 -17.15625 C 1.546875 -22.164062 3.398438 -26.457031 7.109375 -30.03125 C 10.816406 -33.601562 15.257812 -35.390625 20.4375 -35.390625 C 25.894531 -35.390625 30.332031 -33.8125 33.75 -30.65625 C 37.164062 -27.507812 38.875 -23.007812 38.875 -17.15625 C 38.875 -16.351562 38.851562 -15.816406 38.8125 -15.546875 Z M 14.203125 -22.125 L 27.28125 -22.125 C 27.007812 -23.90625 26.300781 -25.273438 25.15625 -26.234375 C 24.019531 -27.203125 22.5625 -27.6875 20.78125 -27.6875 C 18.8125 -27.6875 17.242188 -27.171875 16.078125 -26.140625 C 14.921875 -25.109375 14.296875 -23.769531 14.203125 -22.125 Z M 14.203125 -22.125 "/></g></g></g><g fill="#000000" fill-opacity="1"><g transform="translate(55.879741, 60.909403)"><g><path d="M 6.359375 -4.25 C 3.148438 -7.757812 1.546875 -12.0625 1.546875 -17.15625 C 1.546875 -22.25 3.148438 -26.5625 6.359375 -30.09375 C 9.578125 -33.625 13.671875 -35.390625 18.640625 -35.390625 C 23.191406 -35.390625 26.941406 -33.960938 29.890625 -31.109375 L 29.890625 -34.390625 L 41.765625 -34.390625 L 41.765625 0 L 30.03125 0 L 30.03125 -3.890625 L 29.890625 -3.890625 C 26.941406 -0.628906 23.191406 1 18.640625 1 C 13.671875 1 9.578125 -0.75 6.359375 -4.25 Z M 16.453125 -22.984375 C 14.910156 -21.472656 14.140625 -19.53125 14.140625 -17.15625 C 14.140625 -14.789062 14.875 -12.859375 16.34375 -11.359375 C 17.820312 -9.859375 19.769531 -9.109375 22.1875 -9.109375 C 24.507812 -9.109375 26.414062 -9.867188 27.90625 -11.390625 C 29.40625 -12.910156 30.15625 -14.832031 30.15625 -17.15625 C 30.15625 -19.53125 29.382812 -21.472656 27.84375 -22.984375 C 26.300781 -24.503906 24.414062 -25.265625 22.1875 -25.265625 C 19.90625 -25.265625 17.992188 -24.503906 16.453125 -22.984375 Z M 16.453125 -22.984375 "/></g></g></g><g fill="#000000" fill-opacity="1"><g transform="translate(95.961095, 60.909403)"><g><path d="M 6.03125 -34.390625 L 6.03125 -47.1875 L 17.890625 -47.1875 L 17.890625 -34.390625 L 25.140625 -34.390625 L 25.140625 -25.34375 L 17.890625 -25.34375 L 17.890625 -14.40625 C 17.890625 -11.238281 18.785156 -9.65625 20.578125 -9.65625 C 21.023438 -9.65625 21.492188 -9.742188 21.984375 -9.921875 C 22.472656 -10.097656 22.851562 -10.273438 23.125 -10.453125 L 23.53125 -10.71875 L 26.484375 -1.140625 C 23.929688 0.285156 21.023438 1 17.765625 1 C 15.523438 1 13.597656 0.609375 11.984375 -0.171875 C 10.378906 -0.953125 9.164062 -2 8.34375 -3.3125 C 7.519531 -4.632812 6.925781 -6.019531 6.5625 -7.46875 C 6.207031 -8.925781 6.03125 -10.476562 6.03125 -12.125 L 6.03125 -25.34375 L 1.078125 -25.34375 L 1.078125 -34.390625 Z M 6.03125 -34.390625 "/></g></g></g><g fill="#000000" fill-opacity="1"><g transform="translate(116.738381, 60.909403)"><g><path d="M 15.21875 -34.390625 L 15.21875 -18.03125 C 15.21875 -14.632812 15.726562 -12.21875 16.75 -10.78125 C 17.78125 -9.351562 19.523438 -8.640625 21.984375 -8.640625 C 24.441406 -8.640625 26.179688 -9.351562 27.203125 -10.78125 C 28.234375 -12.21875 28.75 -14.632812 28.75 -18.03125 L 28.75 -34.390625 L 40.625 -34.390625 L 40.625 -15.15625 C 40.625 -9.425781 39.132812 -5.300781 36.15625 -2.78125 C 33.1875 -0.257812 28.460938 1 21.984375 1 C 15.503906 1 10.773438 -0.257812 7.796875 -2.78125 C 4.828125 -5.300781 3.34375 -9.425781 3.34375 -15.15625 L 3.34375 -34.390625 Z M 15.21875 -34.390625 "/></g></g></g><g fill="#000000" fill-opacity="1"><g transform="translate(155.009991, 60.909403)"><g><path d="M 4.015625 0 L 4.015625 -34.390625 L 15.890625 -34.390625 L 15.890625 -29.421875 L 16.015625 -29.421875 C 16.109375 -29.597656 16.253906 -29.820312 16.453125 -30.09375 C 16.648438 -30.363281 17.082031 -30.832031 17.75 -31.5 C 18.425781 -32.175781 19.144531 -32.78125 19.90625 -33.3125 C 20.664062 -33.851562 21.648438 -34.332031 22.859375 -34.75 C 24.066406 -35.175781 25.296875 -35.390625 26.546875 -35.390625 C 27.835938 -35.390625 29.109375 -35.207031 30.359375 -34.84375 C 31.609375 -34.488281 32.523438 -34.132812 33.109375 -33.78125 L 34.046875 -33.25 L 29.09375 -23.1875 C 27.613281 -24.4375 25.554688 -25.0625 22.921875 -25.0625 C 21.492188 -25.0625 20.265625 -24.75 19.234375 -24.125 C 18.210938 -23.5 17.488281 -22.738281 17.0625 -21.84375 C 16.632812 -20.957031 16.332031 -20.203125 16.15625 -19.578125 C 15.976562 -18.953125 15.890625 -18.457031 15.890625 -18.09375 L 15.890625 0 Z M 4.015625 0 "/></g></g></g><g fill="#000000" fill-opacity="1"><g transform="translate(182.691165, 60.909403)"><g><path d="M 38.8125 -15.546875 L 13.875 -15.546875 C 13.875 -13.140625 14.65625 -11.351562 16.21875 -10.1875 C 17.78125 -9.03125 19.476562 -8.453125 21.3125 -8.453125 C 23.238281 -8.453125 24.757812 -8.707031 25.875 -9.21875 C 26.988281 -9.726562 28.257812 -10.742188 29.6875 -12.265625 L 38.28125 -7.984375 C 34.695312 -1.992188 28.75 1 20.4375 1 C 15.257812 1 10.816406 -0.773438 7.109375 -4.328125 C 3.398438 -7.878906 1.546875 -12.15625 1.546875 -17.15625 C 1.546875 -22.164062 3.398438 -26.457031 7.109375 -30.03125 C 10.816406 -33.601562 15.257812 -35.390625 20.4375 -35.390625 C 25.894531 -35.390625 30.332031 -33.8125 33.75 -30.65625 C 37.164062 -27.507812 38.875 -23.007812 38.875 -17.15625 C 38.875 -16.351562 38.851562 -15.816406 38.8125 -15.546875 Z M 14.203125 -22.125 L 27.28125 -22.125 C 27.007812 -23.90625 26.300781 -25.273438 25.15625 -26.234375 C 24.019531 -27.203125 22.5625 -27.6875 20.78125 -27.6875 C 18.8125 -27.6875 17.242188 -27.171875 16.078125 -26.140625 C 14.921875 -25.109375 14.296875 -23.769531 14.203125 -22.125 Z M 14.203125 -22.125 "/></g></g></g><g fill="#000000" fill-opacity="1"><g transform="translate(217.410289, 60.909403)"><g><path d="M 6.359375 -4.25 C 3.148438 -7.757812 1.546875 -12.0625 1.546875 -17.15625 C 1.546875 -22.25 3.148438 -26.5625 6.359375 -30.09375 C 9.578125 -33.625 13.671875 -35.390625 18.640625 -35.390625 C 23.191406 -35.390625 26.941406 -33.960938 29.890625 -31.109375 L 29.890625 -57.640625 L 41.765625 -57.640625 L 41.765625 0 L 30.03125 0 L 30.03125 -3.890625 L 29.890625 -3.890625 C 26.941406 -0.628906 23.191406 1 18.640625 1 C 13.671875 1 9.578125 -0.75 6.359375 -4.25 Z M 16.453125 -22.984375 C 14.910156 -21.472656 14.140625 -19.53125 14.140625 -17.15625 C 14.140625 -14.789062 14.875 -12.859375 16.34375 -11.359375 C 17.820312 -9.859375 19.769531 -9.109375 22.1875 -9.109375 C 24.507812 -9.109375 26.414062 -9.867188 27.90625 -11.390625 C 29.40625 -12.910156 30.15625 -14.832031 30.15625 -17.15625 C 30.15625 -19.53125 29.382812 -21.472656 27.84375 -22.984375 C 26.300781 -24.503906 24.414062 -25.265625 22.1875 -25.265625 C 19.90625 -25.265625 17.992188 -24.503906 16.453125 -22.984375 Z M 16.453125 -22.984375 "/></g></g></g></g></g></svg>