<svg xmlns="http://www.w3.org/2000/svg" xmlns:xlink="http://www.w3.org/1999/xlink" width="40" zoomAndPan="magnify" viewBox="0 0 30 30.000001" height="40" preserveAspectRatio="xMidYMid meet" version="1.0"><defs><g/><clipPath id="edcfe26d28"><path d="M 0.484375 0 L 29.515625 0 L 29.515625 29.03125 L 0.484375 29.03125 Z M 0.484375 0 " clip-rule="nonzero"/></clipPath><clipPath id="6ada115a54"><path d="M 0.484375 1.980469 L 28.710938 1.980469 L 28.710938 27.382812 L 0.484375 27.382812 Z M 0.484375 1.980469 " clip-rule="nonzero"/></clipPath><clipPath id="555d55548b"><path d="M 0.484375 0.980469 L 28.667969 0.980469 L 28.667969 26.175781 L 0.484375 26.175781 Z M 0.484375 0.980469 " clip-rule="nonzero"/></clipPath><clipPath id="b1d9b03dc5"><rect x="0" width="29" y="0" height="27"/></clipPath></defs><g clip-path="url(#edcfe26d28)"><path fill="#ffffff" d="M 0.484375 0 L 29.515625 0 L 29.515625 29.03125 L 0.484375 29.03125 Z M 0.484375 0 " fill-opacity="1" fill-rule="nonzero"/><path fill="#ffffff" d="M 0.484375 0 L 29.515625 0 L 29.515625 29.03125 L 0.484375 29.03125 Z M 0.484375 0 " fill-opacity="1" fill-rule="nonzero"/></g><g clip-path="url(#6ada115a54)"><g transform="matrix(1, 0, 0, 1, 0, 1)"><g clip-path="url(#b1d9b03dc5)"><g clip-path="url(#555d55548b)"><path fill="#007a3f" d="M 15.460938 20.125 L 15.460938 17.976562 L 20.300781 21.492188 L 18.453125 15.804688 L 23.292969 12.289062 L 17.308594 12.289062 L 15.460938 6.597656 L 13.613281 12.289062 L -7.339844 12.289062 L -9.726562 10.550781 L 12.351562 10.550781 L 15.460938 0.976562 L 18.570312 10.550781 L 28.636719 10.550781 L 20.492188 16.46875 L 23.605469 26.039062 L 15.460938 20.125 " fill-opacity="1" fill-rule="nonzero"/></g></g></g></g><g fill="#000000" fill-opacity="1"><g transform="translate(5.134776, 22.112908)"><g><path d="M 3.546875 -4.078125 C 3.191406 -4.078125 2.882812 -3.941406 2.625 -3.671875 C 2.375 -3.410156 2.25 -3.097656 2.25 -2.734375 C 2.25 -2.359375 2.375 -2.039062 2.625 -1.78125 C 2.882812 -1.519531 3.191406 -1.390625 3.546875 -1.390625 C 3.710938 -1.390625 3.867188 -1.410156 4.015625 -1.453125 C 4.171875 -1.492188 4.285156 -1.535156 4.359375 -1.578125 L 4.453125 -1.640625 L 5.09375 -0.328125 C 5.039062 -0.296875 4.96875 -0.25 4.875 -0.1875 C 4.789062 -0.132812 4.59375 -0.0664062 4.28125 0.015625 C 3.96875 0.109375 3.628906 0.15625 3.265625 0.15625 C 2.460938 0.15625 1.757812 -0.125 1.15625 -0.6875 C 0.550781 -1.25 0.25 -1.925781 0.25 -2.71875 C 0.25 -3.507812 0.550781 -4.191406 1.15625 -4.765625 C 1.757812 -5.335938 2.460938 -5.625 3.265625 -5.625 C 3.628906 -5.625 3.960938 -5.578125 4.265625 -5.484375 C 4.566406 -5.398438 4.785156 -5.316406 4.921875 -5.234375 L 5.09375 -5.109375 L 4.453125 -3.8125 C 4.222656 -3.988281 3.921875 -4.078125 3.546875 -4.078125 Z M 3.546875 -4.078125 "/></g></g></g><g fill="#000000" fill-opacity="1"><g transform="translate(9.453024, 22.112908)"><g/></g></g><g fill="#000000" fill-opacity="1"><g transform="translate(11.452269, 22.112908)"><g><path d="M 0.953125 -5.453125 L 0.953125 -6.625 C 0.960938 -7.4375 1.15625 -8.085938 1.53125 -8.578125 C 1.90625 -9.066406 2.425781 -9.3125 3.09375 -9.3125 C 3.375 -9.3125 3.644531 -9.269531 3.90625 -9.1875 C 4.164062 -9.101562 4.351562 -9.019531 4.46875 -8.9375 L 4.65625 -8.828125 L 3.984375 -7.484375 C 3.816406 -7.585938 3.628906 -7.640625 3.421875 -7.640625 C 3.191406 -7.640625 3.035156 -7.554688 2.953125 -7.390625 C 2.878906 -7.234375 2.84375 -6.957031 2.84375 -6.5625 L 2.84375 -5.453125 L 4.09375 -5.453125 L 4.09375 -4.015625 L 2.84375 -4.015625 L 2.84375 0 L 0.953125 0 L 0.953125 -4.015625 L 0.171875 -4.015625 L 0.171875 -5.453125 Z M 0.953125 -5.453125 "/></g></g></g></svg>